<?xml version="1.0" encoding="utf-8"?>
<!-- Generator: Adobe Illustrator 26.0.3, SVG Export Plug-In . SVG Version: 6.00 Build 0)  -->
<svg version="1.1" id="Calque_1" xmlns="http://www.w3.org/2000/svg" xmlns:xlink="http://www.w3.org/1999/xlink" x="0px" y="0px"
	 viewBox="0 0 595.28 841.89" style="enable-background:new 0 0 595.28 841.89;" xml:space="preserve">
<path d="M158.5,386h-35c-6.35,0-11.5-5.15-11.5-11.5v-91c0-6.35,5.15-11.5,11.5-11.5h35c6.35,0,11.5,5.15,11.5,11.5v91
	C170,380.85,164.85,386,158.5,386z"/>
<path d="M230.5,386h-35c-6.35,0-11.5-5.15-11.5-11.5v-67c0-6.35,5.15-11.5,11.5-11.5h35c6.35,0,11.5,5.15,11.5,11.5v67
	C242,380.85,236.85,386,230.5,386z"/>
<path d="M302.5,386h-35c-6.35,0-11.5-5.15-11.5-11.5v-148c0-6.35,5.15-11.5,11.5-11.5h35c6.35,0,11.5,5.15,11.5,11.5v148
	C314,380.85,308.85,386,302.5,386z"/>
<path d="M374.5,386h-35c-6.35,0-11.5-5.15-11.5-11.5v-195c0-6.35,5.15-11.5,11.5-11.5h35c6.35,0,11.5,5.15,11.5,11.5v195
	C386,380.85,380.85,386,374.5,386z"/>
</svg>
